<?xml version="1.0" encoding="UTF-8"?>
<svg id="apple_obj" xmlns="http://www.w3.org/2000/svg" viewBox="0 0 342 379.65">
  <defs>
    <style>
      .apple-cls-1 {
        fill: none;
      }

      .apple-cls-1, .apple-cls-2 {
        stroke-width: 10px;
      }

      .apple-cls-1, .apple-cls-2, .apple-cls-3 {
        stroke: #231f20;
        stroke-miterlimit: 10;
      }

      .apple-cls-2 {
        fill: #ed1c24;
      }

      .apple-cls-3 {
        fill: #00a651;
        stroke-width: 5px;
      }
    </style>
  </defs>
  <path id="apple" class="apple-cls-2" d="M337,246.34c0,91.68-74.32,128.31-166,128.31S5,338.02,5,246.34c0-67.66,40.48-125.86,98.53-151.72,20.61-9.18,38.95,5.74,62.97,5.74,20.27,0,44.18-16.39,62.14-9.74,63.27,23.43,108.36,84.31,108.36,155.72Z"/>
  <g id="apple-stem">
    <path class="apple-cls-1" d="M213.98,4.36c-7.71,4.33-20.36,12.85-30.59,27.96-17.93,26.47-15.74,54.43-14.77,62.77"/>
    <path class="apple-cls-3" d="M245.87,63.48s-40.42-9.43-48.18-15.7-8.97-17.64-2.7-25.4,17.64-8.97,25.4-2.7c7.76,6.27,25.48,43.8,25.48,43.8Z"/>
  </g>
</svg>