<?xml version="1.0" encoding="UTF-8"?>
<svg id="cherry_obj" xmlns="http://www.w3.org/2000/svg" viewBox="0 0 228.02 183.68">
  <defs>
    <style>
      .cherry-cls-1 {
        fill: none;
      }

      .cherry-cls-1, .cherry-cls-2, .cherry-cls-3 {
        stroke: #231f20;
        stroke-miterlimit: 10;
        stroke-width: 4px;
      }

      .cherry-cls-2 {
        fill: #00a651;
      }

      .cherry-cls-3 {
        fill: #ed1c24;
      }
    </style>
  </defs>
  <g id="cherry">
    <path class="cherry-cls-3" d="M110.3,131.18c-6.78,29.56-33.23,34.9-62.79,28.11-29.56-6.78-51.03-23.11-44.25-52.67,4.76-20.76,20.72-36.05,40.04-40.96,8.18-2.08,16.19,5.35,24.99,7.37,8.25,1.89,16.42-2.09,22.63,2.85,16.04,12.75,24.27,34,19.38,55.3Z"/>
    <path class="cherry-cls-3" d="M222.07,113.7c12.31,27.71-5.64,47.85-33.35,60.17-27.71,12.31-54.69,12.14-67.01-15.57-8.65-19.47-5.06-41.27,7.44-56.79,5.3-6.57,16.16-5.44,24.41-9.1,7.74-3.44,11.88-11.53,19.81-11.31,20.48.57,39.82,12.63,48.7,32.61Z"/>
  </g>
  <g id="cherry-stem">
    <path class="cherry-cls-1" d="M107.87,5.82c-5.35,4.7-11.06,10.47-16.54,17.45-14.08,17.92-20.43,35.88-23.48,48.36"/>
    <path class="cherry-cls-1" d="M162.26,20.57c-4.6-2.86-11.55-6.79-20.48-10.38-9.78-3.93-31.49-11.3-34.14-6.75-2.33,4.01,13.19,12,26.94,35.71,5.64,9.73,8.93,18.55,10.66,23.25,4.27,11.61,6.62,22.02,7.97,30.27"/>
    <path class="cherry-cls-2" d="M213.47,21.91s-28.52,16.09-37.41,16.09-16.09-7.21-16.09-16.09,7.21-16.09,16.09-16.09,37.41,16.09,37.41,16.09Z"/>
  </g>
</svg>